<?xml version="1.0" standalone="no"?><!DOCTYPE svg PUBLIC "-//W3C//DTD SVG 1.1//EN" "http://www.w3.org/Graphics/SVG/1.1/DTD/svg11.dtd"><svg t="1544418610752" class="icon" style="" viewBox="0 0 1024 1024" version="1.1" xmlns="http://www.w3.org/2000/svg" p-id="18259" xmlns:xlink="http://www.w3.org/1999/xlink" width="200" height="200"><defs><style type="text/css"></style></defs><path d="M460.0832 547.072a28.8768 28.8768 0 0 1-6.8608-0.8192 252.16 252.16 0 0 1-190.9248-244.736V203.3152a28.0576 28.0576 0 1 1 56.32 0v98.2016a195.9936 195.9936 0 0 0 148.48 190.2592 28.0576 28.0576 0 0 1-6.8096 55.296z m109.568 0a28.0576 28.0576 0 0 1-6.8096-55.2448 196.096 196.096 0 0 0 148.48-190.3104V203.3152a28.0576 28.0576 0 1 1 56.32 0v98.2016a252.16 252.16 0 0 1-190.9248 244.736 28.8768 28.8768 0 0 1-6.8608 0.8192z m169.728 301.6704a28.0576 28.0576 0 0 1-28.0576-28.0576v-84.1728a195.9424 195.9424 0 0 0-148.48-190.2592 28.0576 28.0576 0 0 1 13.6704-54.4256 252.0064 252.0064 0 0 1 190.9248 244.6848v84.1728a28.0576 28.0576 0 0 1-28.0576 28.0576z m-449.024 0a28.0576 28.0576 0 0 1-28.0576-28.0576v-84.1728a252.1088 252.1088 0 0 1 190.9248-244.736 28.0576 28.0576 0 1 1 13.6704 54.4256 195.9424 195.9424 0 0 0-148.48 190.3104v84.1728a28.0576 28.0576 0 0 1-28.0576 28.0576zM823.552 231.3728H206.1824a28.0576 28.0576 0 0 1-28.0576-28.0576V91.0336a28.0576 28.0576 0 0 1 28.0576-28.0576h617.3696a28.0576 28.0576 0 0 1 28.0576 28.0576v112.2816a28.0576 28.0576 0 0 1-28.0576 28.0576z m-589.312-56.32h561.2544v-56.32H234.24z m589.312 785.9712H206.1824a28.0576 28.0576 0 0 1-28.0576-28.0576v-112.2816a28.0576 28.0576 0 0 1 28.0576-28.0576h617.3696a28.0576 28.0576 0 0 1 28.0576 28.0576v112.2816a28.0576 28.0576 0 0 1-28.0576 28.0576z m-589.312-56.32h561.2544v-56.32H234.24z" p-id="18260"></path></svg>