<?xml version="1.0" standalone="no"?><!DOCTYPE svg PUBLIC "-//W3C//DTD SVG 1.1//EN" "http://www.w3.org/Graphics/SVG/1.1/DTD/svg11.dtd"><svg t="1544354999155" class="icon" style="" viewBox="0 0 1024 1024" version="1.1" xmlns="http://www.w3.org/2000/svg" p-id="2567" xmlns:xlink="http://www.w3.org/1999/xlink" width="200" height="200"><defs><style type="text/css"></style></defs><path d="M812.8 992h-640C83.2 992 12.8 921.6 12.8 832V192C12.8 102.4 83.2 32 172.8 32h492.8c19.2 0 38.4 12.8 38.4 32s-12.8 32-32 32H172.8c-51.2 0-89.6 44.8-89.6 96v640c0 51.2 44.8 96 96 96h640c51.2 0 96-44.8 96-96V396.8c0-19.2 12.8-32 32-32s32 12.8 32 32V832c-6.4 89.6-76.8 160-166.4 160z" fill="#2F3448" p-id="2568"></path><path d="M275.2 768c-6.4 0-19.2-6.4-25.6-12.8-12.8-12.8-12.8-32 0-44.8l704-640c12.8-12.8 32-12.8 44.8 0 12.8 12.8 12.8 32 0 44.8l-704 640c-6.4 12.8-12.8 12.8-19.2 12.8z" fill="#2F3448" p-id="2569"></path></svg>