<?xml version="1.0" standalone="no"?><!DOCTYPE svg PUBLIC "-//W3C//DTD SVG 1.1//EN" "http://www.w3.org/Graphics/SVG/1.1/DTD/svg11.dtd"><svg t="1544418753570" class="icon" style="" viewBox="0 0 1024 1024" version="1.1" xmlns="http://www.w3.org/2000/svg" p-id="19083" xmlns:xlink="http://www.w3.org/1999/xlink" width="200" height="200"><defs><style type="text/css"></style></defs><path d="M861.061 356.65h-28.624c-2.549-35.102-10.837-69.2-24.751-101.65-16.395-38.238-39.857-72.57-69.732-102.04-29.851-29.446-64.612-52.564-103.315-68.714-40.06-16.715-82.594-25.19-126.422-25.19-43.838 0-86.381 8.474-126.447 25.19-38.709 16.148-73.473 39.267-103.327 68.714-29.878 29.469-53.342 63.8-69.738 102.039-13.915 32.449-22.203 66.547-24.752 101.65H172.07c-42.523 0-77.118 33.078-77.118 73.737v274.059c0 40.659 34.595 73.736 77.118 73.736h86.396c42.549 0 77.165-33.077 77.165-73.736V430.387c0-40.658-34.616-73.736-77.165-73.736h-26.369c12.102-139.636 131.31-249.628 276.12-249.628 144.788 0 263.977 109.991 276.077 249.628h-9.629c-42.549 0-77.165 33.077-77.165 73.736v274.059c0 40.659 34.616 73.736 77.165 73.736h18.18c-5.06 47.77-26.99 82.956-65.382 104.725-12.647 7.17-25.424 11.918-36.496 15.055a66.991 66.991 0 0 0-4.388-9.88l-0.052-0.096c-12.489-22.652-36.92-36.724-63.761-36.724h-51.329c-39.688 0-71.976 30.813-71.976 68.688s32.288 68.687 71.976 68.687h51.329c29.24 0 54.445-16.733 65.699-40.685 16.625-3.493 38.659-10.038 60.803-22.279 38.768-21.429 84.759-64.184 91.776-147.489h20.017c42.498 0 77.072-33.077 77.072-73.737v-274.06c0-40.659-34.574-73.736-77.072-73.736z m-573.397 73.737v274.059c0 14.21-13.098 25.769-29.198 25.769H172.07c-16.074 0-29.151-11.56-29.151-25.77V430.388c0-14.209 13.077-25.769 29.15-25.769h86.397c16.1 0 29.198 11.56 29.198 25.77zM622.767 940.67h-51.329c-13.239 0-24.008-9.294-24.008-20.72s10.77-20.72 24.008-20.72h51.329c9.204 0 17.726 4.657 21.727 11.868 1.514 2.793 2.281 5.77 2.281 8.852 0 11.426-10.77 20.72-24.008 20.72z m267.399-236.223c0 14.21-13.056 25.769-29.105 25.769h-86.396c-16.099 0-29.198-11.56-29.198-25.77V430.388c0-14.209 13.098-25.769 29.198-25.769h86.396c16.05 0 29.105 11.56 29.105 25.77v274.058z" p-id="19084"></path></svg>