<?xml version="1.0" standalone="no"?><!DOCTYPE svg PUBLIC "-//W3C//DTD SVG 1.1//EN" "http://www.w3.org/Graphics/SVG/1.1/DTD/svg11.dtd"><svg t="1544418162741" class="icon" style="" viewBox="0 0 1024 1024" version="1.1" xmlns="http://www.w3.org/2000/svg" p-id="17033" xmlns:xlink="http://www.w3.org/1999/xlink" width="200" height="200"><defs><style type="text/css"></style></defs><path d="M510.52088889 2.95822222C230.28622222 2.95822222 2.27555555 230.85511111 2.27555555 511.08977778s228.01066667 508.24533333 508.24533334 508.24533333c280.23466667 0 508.24533333-228.01066667 508.24533333-508.24533333 0-280.23466667-228.01066667-508.13155555-508.24533333-508.13155556z m0 956.52977778c-233.472 0-448.28444445-214.81244445-448.28444444-448.28444445s214.81244445-448.28444445 448.28444444-448.28444444c233.58577778 0 448.28444445 214.81244445 448.28444444 448.28444444 0.11377778 237.90933333-214.69866667 448.28444445-448.28444444 448.28444445z" p-id="17034"></path><path d="M715.54844445 649.44355555L523.94666667 535.09688889V246.44266667c0-24.34844445-35.49866667-44.14577778-35.49866667-44.14577778s-35.49866667 19.79733333-35.49866667 44.14577778L444.30222222 555.23555555c0 16.384 20.36622222 30.03733333 33.56444445 37.66044445 3.64088889 5.46133333 13.76711111 10.46755555 19.79733333 13.99466667l182.04444445 101.71733333c21.04888889 12.17422222 56.09244445-7.50933333 56.09244444-7.50933333s0.91022222-39.36711111-20.25244444-51.65511112z m0-8.53333333" p-id="17035"></path></svg>